<mxfile host="app.diagrams.net" modified="2022-11-18T07:24:00.420Z" agent="5.0 (Windows NT 10.0; Win64; x64) AppleWebKit/537.36 (KHTML, like Gecko) Chrome/107.0.0.0 Safari/537.36" etag="pilYxueuq370WrNnjQEb" version="20.5.3" type="github">
  <diagram id="NJ8cJHLValZRu48dwTv1" name="Страница 1">
    <mxGraphModel dx="1679" dy="904" grid="1" gridSize="10" guides="1" tooltips="1" connect="1" arrows="1" fold="1" page="1" pageScale="1" pageWidth="827" pageHeight="1169" math="0" shadow="0">
      <root>
        <mxCell id="0" />
        <mxCell id="1" parent="0" />
        <mxCell id="DkcC5H-eTf_ur9rVXrn--1" value=":ChangeApplicantRequestInternalState" style="shape=umlLifeline;perimeter=lifelinePerimeter;whiteSpace=wrap;html=1;container=1;collapsible=0;recursiveResize=0;outlineConnect=0;" vertex="1" parent="1">
          <mxGeometry x="-320" y="50" width="220" height="3360" as="geometry" />
        </mxCell>
      </root>
    </mxGraphModel>
  </diagram>
</mxfile>
